<mxfile host="app.diagrams.net" agent="Mozilla/5.0 (Windows NT 10.0; Win64; x64) AppleWebKit/537.36 (KHTML, like Gecko) Chrome/131.0.0.0 Safari/537.36" version="26.0.7">
  <diagram name="Page-1" id="AuV2LI77WgqBhZ2H265l">
    <mxGraphModel dx="1500" dy="883" grid="1" gridSize="10" guides="1" tooltips="1" connect="1" arrows="1" fold="1" page="1" pageScale="1" pageWidth="1169" pageHeight="827" math="0" shadow="0">
      <root>
        <mxCell id="0" />
        <mxCell id="1" parent="0" />
        <mxCell id="gL6BJl7nwbBWncuyHtoa-11" value="&lt;font style=&quot;font-size: 15px;&quot;&gt;Large Image&lt;/font&gt;" style="whiteSpace=wrap;html=1;glass=0;" vertex="1" parent="1">
          <mxGeometry x="10" y="110" width="1150" height="610" as="geometry" />
        </mxCell>
        <mxCell id="gL6BJl7nwbBWncuyHtoa-55" value="" style="shape=umlDestroy;whiteSpace=wrap;html=1;strokeWidth=1;targetShapes=umlLifeline;fillColor=#bac8d3;strokeColor=#23445d;" vertex="1" parent="1">
          <mxGeometry x="20" y="120" width="1130" height="590" as="geometry" />
        </mxCell>
        <mxCell id="gL6BJl7nwbBWncuyHtoa-4" value="" style="rounded=0;whiteSpace=wrap;html=1;fillColor=none;" vertex="1" parent="1">
          <mxGeometry x="10" y="10" width="1150" height="90" as="geometry" />
        </mxCell>
        <mxCell id="gL6BJl7nwbBWncuyHtoa-5" value="Country Name" style="text;html=1;align=center;verticalAlign=middle;whiteSpace=wrap;rounded=0;strokeWidth=1;fontSize=23;" vertex="1" parent="1">
          <mxGeometry x="490" y="40" width="170" height="30" as="geometry" />
        </mxCell>
        <mxCell id="gL6BJl7nwbBWncuyHtoa-15" value="" style="rounded=0;whiteSpace=wrap;html=1;fillColor=none;" vertex="1" parent="1">
          <mxGeometry x="10" y="730" width="1150" height="90" as="geometry" />
        </mxCell>
        <mxCell id="gL6BJl7nwbBWncuyHtoa-16" value="" style="whiteSpace=wrap;html=1;aspect=fixed;" vertex="1" parent="1">
          <mxGeometry x="80" y="160" width="240" height="240" as="geometry" />
        </mxCell>
        <mxCell id="gL6BJl7nwbBWncuyHtoa-18" value="" style="whiteSpace=wrap;html=1;" vertex="1" parent="1">
          <mxGeometry x="50" y="180" width="240" height="50" as="geometry" />
        </mxCell>
        <mxCell id="gL6BJl7nwbBWncuyHtoa-38" value="" style="shape=table;startSize=0;container=1;collapsible=0;childLayout=tableLayout;fontSize=11;fillColor=none;strokeColor=none;" vertex="1" parent="1">
          <mxGeometry x="850" y="530" width="60" height="60" as="geometry" />
        </mxCell>
        <mxCell id="gL6BJl7nwbBWncuyHtoa-40" value="&lt;font style=&quot;font-size: 16px;&quot;&gt;Label : Value&lt;/font&gt;&lt;div&gt;&lt;font style=&quot;font-size: 16px;&quot;&gt;Label : Value&lt;/font&gt;&lt;/div&gt;&lt;div style=&quot;&quot;&gt;&lt;font style=&quot;font-size: 16px;&quot;&gt;Label : Value&lt;/font&gt;&lt;/div&gt;&lt;div&gt;&lt;font style=&quot;font-size: 16px;&quot;&gt;Label : Value&lt;/font&gt;&lt;/div&gt;&lt;div&gt;&lt;font style=&quot;font-size: 16px;&quot;&gt;Label : Value&lt;/font&gt;&lt;/div&gt;&lt;div&gt;&lt;font style=&quot;font-size: 16px;&quot;&gt;Label : Value&lt;/font&gt;&lt;/div&gt;" style="text;html=1;align=left;verticalAlign=top;whiteSpace=wrap;rounded=0;spacingTop=0;spacingBottom=0;spacing=2;" vertex="1" parent="1">
          <mxGeometry x="140" y="250" width="120" height="130" as="geometry" />
        </mxCell>
        <mxCell id="gL6BJl7nwbBWncuyHtoa-41" value="Data" style="text;html=1;align=center;verticalAlign=middle;whiteSpace=wrap;rounded=0;fontSize=21;" vertex="1" parent="1">
          <mxGeometry x="140" y="190" width="60" height="30" as="geometry" />
        </mxCell>
        <mxCell id="gL6BJl7nwbBWncuyHtoa-42" value="" style="whiteSpace=wrap;html=1;aspect=fixed;" vertex="1" parent="1">
          <mxGeometry x="880" y="450" width="240" height="240" as="geometry" />
        </mxCell>
        <mxCell id="gL6BJl7nwbBWncuyHtoa-43" value="" style="whiteSpace=wrap;html=1;" vertex="1" parent="1">
          <mxGeometry x="850" y="470" width="240" height="50" as="geometry" />
        </mxCell>
        <mxCell id="gL6BJl7nwbBWncuyHtoa-44" value="&lt;font style=&quot;font-size: 16px;&quot;&gt;Label : Value&lt;/font&gt;&lt;div&gt;&lt;font style=&quot;font-size: 16px;&quot;&gt;Label : Value&lt;/font&gt;&lt;/div&gt;&lt;div style=&quot;&quot;&gt;&lt;font style=&quot;font-size: 16px;&quot;&gt;Label : Value&lt;/font&gt;&lt;/div&gt;&lt;div&gt;&lt;font style=&quot;font-size: 16px;&quot;&gt;Label : Value&lt;/font&gt;&lt;/div&gt;&lt;div&gt;&lt;font style=&quot;font-size: 16px;&quot;&gt;Label : Value&lt;/font&gt;&lt;/div&gt;&lt;div&gt;&lt;font style=&quot;font-size: 16px;&quot;&gt;Label : Value&lt;/font&gt;&lt;/div&gt;" style="text;html=1;align=left;verticalAlign=top;whiteSpace=wrap;rounded=0;spacingTop=0;spacingBottom=0;spacing=2;" vertex="1" parent="1">
          <mxGeometry x="940" y="540" width="120" height="130" as="geometry" />
        </mxCell>
        <mxCell id="gL6BJl7nwbBWncuyHtoa-45" value="Weather" style="text;html=1;align=center;verticalAlign=middle;whiteSpace=wrap;rounded=0;fontSize=21;" vertex="1" parent="1">
          <mxGeometry x="945" y="480" width="60" height="30" as="geometry" />
        </mxCell>
        <mxCell id="gL6BJl7nwbBWncuyHtoa-56" value="Standard footer content - copyright - name - location&lt;div&gt;Last Modified Date&lt;/div&gt;" style="text;html=1;align=center;verticalAlign=middle;whiteSpace=wrap;rounded=0;fontSize=13;" vertex="1" parent="1">
          <mxGeometry x="340" y="760" width="440" height="30" as="geometry" />
        </mxCell>
      </root>
    </mxGraphModel>
  </diagram>
</mxfile>
